<?xml version="1.0" encoding="utf-8"?>
<!-- Generator: Adobe Illustrator 18.0.0, SVG Export Plug-In . SVG Version: 6.00 Build 0)  -->
<!DOCTYPE svg PUBLIC "-//W3C//DTD SVG 1.1//EN" "http://www.w3.org/Graphics/SVG/1.1/DTD/svg11.dtd">
<svg version="1.1" id="Layer_1" xmlns="http://www.w3.org/2000/svg" xmlns:xlink="http://www.w3.org/1999/xlink" x="0px" y="0px"
	 viewBox="0 0 64 64" enable-background="new 0 0 64 64" xml:space="preserve">
<g>
	<g>
		<g>
			<path fill="#231F20" d="M23.3,61.5c3.3,3.3,8.7,3.3,12,0l26.2-26.2c3.3-3.3,3.3-8.7,0-12L23.3,61.5z"/>
		</g>
	</g>
	<g>
		<g>
			<path fill="#231F20" d="M2.5,41.4L41.4,2.5c-3.3-3.3-8.8-3.3-12.1,0.1L2.6,29.2C-0.8,32.6-0.9,38.1,2.5,41.4L2.5,41.4z"/>
		</g>
	</g>
	<g>
		<g>
			<path fill="#231F20" d="M64.1,10.8c0-2.9-1.1-5.7-3.2-7.7c-2.1-2.1-4.8-3.2-7.7-3.2c-2.9,0-5.7,1.1-7.7,3.2l-42,42
				c-4.3,4.3-4.3,11.2,0,15.5c2.1,2.1,4.8,3.2,7.7,3.2c2.9,0,5.7-1.1,7.7-3.2l42-42C63,16.5,64.1,13.7,64.1,10.8z M49,16
				c-1.7,0-3,1.3-3,3v2c0,3.9-3.1,7-7,7h-1c-1.7,0-3,1.3-3,3v2c0,3.9-3.1,7-7,7h-1c-2.2,0-4,1.8-4,4c0,3.9-3.1,7-7,7
				c-1.7,0-3,1.3-3,3c0,1.1-0.9,2-2,2s-2-0.9-2-2c0-3.9,3.1-7,7-7c1.7,0,3-1.3,3-3c0-4.4,3.6-8,8-8h1c1.7,0,3-1.3,3-3v-2
				c0-3.9,3.1-7,7-7h1c1.7,0,3-1.3,3-3v-2c0-3.9,3.1-7,7-7c1.7,0,3-1.3,3-3c0-1.1,0.9-2,2-2s2,0.9,2,2C56,12.9,52.9,16,49,16z"/>
		</g>
	</g>
</g>
</svg>
